<?xml version="1.0" encoding="utf-8"?>
<!-- Generator: Adobe Illustrator 21.1.0, SVG Export Plug-In . SVG Version: 6.00 Build 0)  -->
<svg version="1.1" id="Ebene_1" xmlns="http://www.w3.org/2000/svg" xmlns:xlink="http://www.w3.org/1999/xlink" x="0px" y="0px"
	 width="841.89001px" height="595.28003px" viewBox="0 0 841.89001 595.28003"
	 style="enable-background:new 0 0 841.89001 595.28003;" xml:space="preserve">
<style type="text/css">
	.st0{fill:#6A6A6A;}
</style>
<path id="f_1_" class="st0" d="M195.41888,458.52472V425.311h11.1487l1.66905-12.94406h-12.81775v-8.26419
	c0-3.74768,1.04063-6.30157,6.41499-6.30157l6.85435-0.00311v-11.57706c-1.18593-0.15753-5.2545-0.50995-9.98804-0.50995
	c-9.8824,0-16.6481,6.03214-16.6481,17.11002v9.54587h-11.17711V425.311h11.17711v33.21371H195.41888z"/>
<path class="st0" d="M189.78174,482.30176c-33.18555,0-60.18408-26.99805-60.18408-60.18359s26.99854-60.18457,60.18408-60.18457
	s60.18359,26.99902,60.18359,60.18457S222.96729,482.30176,189.78174,482.30176z M189.78174,367.93359
	c-29.87744,0-54.18408,24.30664-54.18408,54.18457c0,29.87695,24.30664,54.18359,54.18408,54.18359
	c29.87695,0,54.18359-24.30664,54.18359-54.18359C243.96533,392.24023,219.65869,367.93359,189.78174,367.93359z"/>
</svg>
