<?xml version="1.0" encoding="utf-8"?>
<!-- Generator: Adobe Illustrator 21.1.0, SVG Export Plug-In . SVG Version: 6.00 Build 0)  -->
<svg version="1.1" id="Ebene_1" xmlns="http://www.w3.org/2000/svg" xmlns:xlink="http://www.w3.org/1999/xlink" x="0px" y="0px"
	 width="841.89001px" height="595.28003px" viewBox="0 0 841.89001 595.28003"
	 style="enable-background:new 0 0 841.89001 595.28003;" xml:space="preserve">
<style type="text/css">
	.st0{fill:#6A6A6A;}
</style>
<path class="st0" d="M526.95532,396.61868c8.87244,0,9.92334,0.03384,13.42719,0.1937
	c3.23975,0.14786,4.99921,0.68912,6.1701,1.14417c1.55096,0.60278,2.6579,1.32291,3.82062,2.48563
	c1.16278,1.16275,1.88293,2.26968,2.48566,3.82071c0.45508,1.17087,0.99634,2.93036,1.14417,6.17004
	c0.15991,3.50388,0.19373,4.55478,0.19373,13.42722s-0.03381,9.92334-0.19373,13.42719
	c-0.14783,3.23972-0.68909,4.99921-1.14417,6.1701c-0.60272,1.55099-1.32288,2.65793-2.4856,3.82065
	c-1.16278,1.16278-2.26971,1.8829-3.82068,2.48566c-1.1709,0.45505-2.93036,0.99634-6.1701,1.14417
	c-3.50336,0.15985-4.55414,0.1937-13.42719,0.1937s-9.92383-0.03384-13.42719-0.1937
	c-3.23972-0.14783-4.99921-0.68912-6.17007-1.14417c-1.55103-0.60275-2.65796-1.32288-3.82068-2.4856
	c-1.16275-1.16275-1.8829-2.26971-2.48566-3.82071c-0.45505-1.1709-0.99634-2.93039-1.14417-6.17004
	c-0.15985-3.50391-0.1937-4.55481-0.1937-13.42725s0.03384-9.92334,0.1937-13.42719
	c0.14783-3.23972,0.68912-4.99921,1.14417-6.17007c0.60275-1.55103,1.32288-2.65796,2.48563-3.82068
	c1.16275-1.16275,2.26968-1.88287,3.82071-2.48566c1.17087-0.45505,2.93036-0.99631,6.17001-1.14417
	C517.03198,396.65253,518.08289,396.61868,526.95532,396.61868 M526.95532,390.63156c-9.02435,0-10.15594,0.03821-13.70007,0.19992
	c-3.5369,0.16138-5.9523,0.72308-8.06595,1.54453c-2.18506,0.84918-4.03818,1.98535-5.8855,3.83264
	c-1.84729,1.84729-2.98346,3.70041-3.83261,5.88547c-0.82144,2.11365-1.38315,4.52908-1.54453,8.06595
	c-0.16171,3.54416-0.19992,4.67569-0.19992,13.70007c0,9.02435,0.03821,10.15591,0.19992,13.7001
	c0.16138,3.53687,0.72308,5.95224,1.54453,8.06592c0.84915,2.18503,1.98532,4.03818,3.83261,5.8855
	c1.84732,1.84729,3.70044,2.98346,5.8855,3.83261c2.11365,0.82144,4.52905,1.38315,8.06595,1.54453
	c3.54413,0.16174,4.67572,0.19995,13.70007,0.19995s10.15594-0.03821,13.70007-0.19995
	c3.53687-0.16138,5.95227-0.72308,8.06598-1.54453c2.185-0.84915,4.03815-1.98532,5.88544-3.83261
	c1.84729-1.84732,2.98346-3.70044,3.83264-5.8855c0.82141-2.11368,1.38318-4.52905,1.54456-8.06592
	c0.16168-3.54419,0.19989-4.67575,0.19989-13.7001s-0.03821-10.15591-0.19989-13.70007
	c-0.16138-3.53687-0.72314-5.9523-1.54456-8.06595c-0.84918-2.18506-1.98535-4.03818-3.83264-5.88547
	s-3.70044-2.98346-5.88544-3.83264c-2.11371-0.82144-4.52911-1.38315-8.06598-1.54453
	C537.11127,390.66977,535.97968,390.63156,526.95532,390.63156L526.95532,390.63156z"/>
<path class="st0" d="M526.95532,406.79681c-9.42383,0-17.06332,7.6395-17.06332,17.06332s7.6395,17.06332,17.06332,17.06332
	s17.06335-7.6395,17.06335-17.06332S536.37915,406.79681,526.95532,406.79681z M526.95532,434.93634
	c-6.11719,0-11.07617-4.95898-11.07617-11.0762s4.95898-11.0762,11.07617-11.0762s11.07617,4.95898,11.07617,11.0762
	S533.07251,434.93634,526.95532,434.93634z"/>
<circle class="st0" cx="544.69281" cy="406.12262" r="3.98743"/>
<path class="st0" d="M526.95508,484.04395c-33.18555,0-60.18359-26.99805-60.18359-60.18359s26.99805-60.18457,60.18359-60.18457
	s60.18457,26.99902,60.18457,60.18457S560.14062,484.04395,526.95508,484.04395z M526.95508,369.67578
	c-29.87695,0-54.18359,24.30664-54.18359,54.18457c0,29.87695,24.30664,54.18359,54.18359,54.18359
	c29.87793,0,54.18457-24.30664,54.18457-54.18359C581.13965,393.98242,556.83301,369.67578,526.95508,369.67578z"/>
</svg>
