<?xml version="1.0" encoding="utf-8"?>
<!-- Generator: Adobe Illustrator 21.1.0, SVG Export Plug-In . SVG Version: 6.00 Build 0)  -->
<svg version="1.1" id="Ebene_1" xmlns="http://www.w3.org/2000/svg" xmlns:xlink="http://www.w3.org/1999/xlink" x="0px" y="0px"
	 width="841.89001px" height="595.28003px" viewBox="0 0 841.89001 595.28003"
	 style="enable-background:new 0 0 841.89001 595.28003;" xml:space="preserve">
<style type="text/css">
	.st0{fill:#6A6A6A;}
</style>
<path class="st0" d="M341.0239,452.09473c26.22089,0,40.55994-21.72321,40.55994-40.55991
	c0-0.61731-0.01251-1.23175-0.04074-1.84296c2.7832-2.01205,5.20282-4.52264,7.11157-7.38104
	c-2.55441,1.13461-5.3031,1.89941-8.18658,2.24414c2.94302-1.76456,5.20279-4.5571,6.26843-7.88568
	c-2.755,1.6329-5.8046,2.82068-9.05164,3.46017c-2.60141-2.77075-6.30606-4.50391-10.40561-4.50391
	c-7.87317,0-14.2576,6.38437-14.2576,14.25436c0,1.1189,0.1254,2.2066,0.36987,3.25034
	c-11.84738-0.59552-22.3533-6.26843-29.38333-14.89386c-1.22552,2.10617-1.93069,4.55402-1.93069,7.16486
	c0,4.94583,2.51678,9.3118,6.34366,11.866c-2.33813-0.0719-4.53522-0.71448-6.45648-1.78326
	c-0.00314,0.05951-0.00314,0.11917-0.00314,0.18173c0,6.90469,4.91446,12.66852,11.43677,13.97565
	c-1.19727,0.32578-2.45721,0.50137-3.75793,0.50137c-0.91833,0-1.81158-0.09085-2.67978-0.25708
	c1.81473,5.66354,7.07709,9.78506,13.31732,9.90118c-4.87997,3.82364-11.02618,6.1022-17.7052,6.1022
	c-1.15027,0-2.28485-0.06583-3.40063-0.19742C325.48126,449.73468,332.97208,452.09473,341.0239,452.09473"/>
<path class="st0" d="M352.58643,481.04395c-33.18555,0-60.18408-26.99805-60.18408-60.18359s26.99854-60.18457,60.18408-60.18457
	s60.18359,26.99902,60.18359,60.18457S385.77197,481.04395,352.58643,481.04395z M352.58643,366.67578
	c-29.87744,0-54.18408,24.30664-54.18408,54.18457c0,29.87695,24.30664,54.18359,54.18408,54.18359
	c29.87695,0,54.18359-24.30664,54.18359-54.18359C406.77002,390.98242,382.46338,366.67578,352.58643,366.67578z"/>
</svg>
